# xmcd
#
# Track frame offsets:
#	150
#	11437
#	22850
#	32790
#	44002
#	54892
#	66565
#	76497
#	89415
#	101035
#	113305
#
# Disc length: 1658 seconds
#
# Revision: 1
# Processed by: cddbd v1.4b41PL2 Copyright (c) Steve Scherf et al.
# Submitted via: audiograbber 1.80
#
DISCID=8206780b
DTITLE=Sonny James - Sonny James Greatest Hits
DYEAR=1900
DGENRE=
TTITLE0=Young Love
TTITLE1=The Minute You're Gone
TTITLE2=You're The Only World I Know
TTITLE3=Take Good Care Of Her
TTITLE4=I'll Never Find Another You
TTITLE5=Bright Lights, Big City
TTITLE6=True Love's A Blessing
TTITLE7=Since I Met You Baby
TTITLE8=It's Just A Matter Of Time
TTITLE9=That's Why I Love You Like I Do
TTITLE10=Baltimore
EXTD=CURB Records D2-77359
EXTT0=
EXTT1=
EXTT2=
EXTT3=
EXTT4=
EXTT5=
EXTT6=
EXTT7=
EXTT8=
EXTT9=
EXTT10=
PLAYORDER=
